ply
format ascii 1.0
element vertex 8
property float32 x
property float32 y
property float32 z
property float32 nx
property float32 ny
property float32 nz
property float32 u
property float32 v
property float32 red
property float32 green
property float32 blue
element face 12
property list uint8 int32 vertex_index
end_header
0 0 0	-1 -1 -1	0 0	0 0 0
0 0 1	1 1 -1		0 1	0 0 1
0 1 1 	-1 1 1 		1 1	0 1 1
0 1 0 	1 -1 1	 	1 0 	0 1 0
1 0 0 	1 -1 -1		0 0 	1 0 0
1 0 1 	-1 1 -1		0 1	1 0 1
1 1 1 	-1 -1 -1	1 1 	1 1 1
1 1 0 	1 1 -1		1 0	1 1 0
3 0 1 3
3 1 2 3
3 7 6 4
3 6 5 4
3 0 4 1
3 4 5 1
3 1 5 2
3 5 6 2
3 2 6 3
3 6 7 3
3 3 7 0
3 7 4 0

